<?xml version="1.0" standalone="no"?>
<!DOCTYPE svg PUBLIC "-//W3C//DTD SVG 20010904//EN"
 "http://www.w3.org/TR/2001/REC-SVG-20010904/DTD/svg10.dtd">
<svg version="1.0" xmlns="http://www.w3.org/2000/svg"
 width="1280.000000pt" height="470.000000pt" viewBox="0 0 1280.000000 470.000000"
 preserveAspectRatio="xMidYMid meet">

<g transform="translate(0.000000,470.000000) scale(0.100000,-0.100000)"
fill="#000000" stroke="none">
<path d="M6977 4632 l-99 -57 -433 -499 -434 -499 62 -74 c100 -120 99 -105
12 -153 -42 -23 -81 -40 -88 -37 -7 3 -170 145 -364 317 -193 171 -355 312
-358 312 -4 1 -53 -25 -109 -57 -74 -42 -109 -68 -125 -94 l-22 -36 4 83 c3
58 0 82 -8 82 -7 0 -268 -81 -581 -181 -517 -164 -579 -187 -681 -242 -106
-57 -113 -63 -113 -92 0 -50 30 -588 32 -591 2 -1 45 9 97 22 52 13 96 22 98
20 2 -2 6 -32 9 -67 l6 -64 -108 3 c-185 6 -385 -47 -548 -147 -38 -23 -70
-40 -72 -39 -1 2 2 23 6 48 17 87 12 280 -10 366 -40 157 -132 315 -256 439
-67 67 -215 170 -319 223 -190 95 -538 147 -825 123 -478 -40 -943 -204 -1420
-501 -121 -75 -160 -106 -237 -186 l-92 -96 49 -81 c251 -425 513 -863 519
-870 4 -4 54 12 112 37 57 24 105 44 106 43 0 -1 201 -456 446 -1012 524
-1190 468 -1065 480 -1065 5 0 202 61 436 137 419 134 428 137 531 203 68 43
106 73 107 86 2 10 -35 163 -81 339 -46 176 -83 321 -82 323 2 1 20 -24 41
-55 119 -179 319 -315 519 -352 84 -16 262 -14 344 4 156 32 300 101 440 209
84 65 75 77 92 -124 7 -74 13 -136 15 -138 1 -1 185 24 407 57 l406 60 116 58
116 58 0 257 c0 142 2 258 3 258 2 0 341 -167 752 -372 l749 -371 106 56 105
56 5 357 5 357 80 18 c94 20 211 65 314 120 40 22 76 38 78 35 3 -3 -9 -89
-26 -192 -18 -103 -30 -188 -29 -189 5 -4 902 -145 921 -145 10 0 51 18 91 40
40 22 78 40 84 40 7 0 43 -63 82 -140 l70 -140 70 35 c38 19 73 35 78 35 5 0
13 -39 18 -87 l9 -88 529 -93 528 -94 94 49 c51 26 100 53 107 58 12 9 12 28
-5 130 -10 65 -17 124 -15 130 3 5 42 16 88 23 46 8 112 25 147 39 35 14 65
23 68 20 2 -2 -5 -84 -16 -182 -11 -98 -19 -179 -18 -180 2 -1 149 -23 328
-49 179 -26 335 -49 348 -51 21 -5 22 -10 22 -89 0 -46 3 -110 6 -142 l6 -59
360 -115 360 -114 112 56 111 57 474 1428 c260 785 473 1432 473 1438 -1 10
-949 245 -987 244 -11 0 -49 -17 -85 -39 -36 -21 -67 -37 -69 -34 -2 2 -9 29
-15 61 l-12 58 -234 52 c-129 29 -393 87 -586 129 l-351 77 -107 -59 -108 -59
7 -291 7 -291 -109 -11 c-167 -18 -315 -68 -437 -146 -32 -20 -59 -36 -61 -34
-1 2 -37 224 -79 493 -42 270 -82 518 -88 553 l-10 62 -385 0 -386 0 -113 -65
-113 -65 -307 0 -306 0 -108 -61 -108 -62 -17 -111 c-26 -162 -19 -156 -100
-91 -138 110 -351 193 -543 212 l-77 8 342 184 342 184 -241 358 c-151 224
-248 359 -257 358 -9 0 -60 -26 -114 -57z m206 -431 c64 -88 117 -163 117
-168 0 -4 -160 -88 -355 -185 l-354 -177 -21 28 c-11 16 -20 34 -20 40 0 6
100 131 223 277 122 147 236 284 252 305 17 21 32 38 35 39 3 0 58 -72 123
-159z m2183 -1118 l81 -527 -56 -75 c-98 -133 -166 -286 -192 -435 -17 -103
-7 -303 21 -391 66 -207 204 -378 377 -468 67 -34 68 -36 79 -111 l7 -48 -39
6 c-22 3 -149 22 -284 42 -135 20 -246 37 -247 38 -2 1 -37 233 -80 514 -42
282 -80 509 -84 504 -6 -5 -132 -323 -209 -527 -6 -16 -17 -1 -55 80 -48 102
-221 475 -257 554 -11 24 -23 39 -28 35 -4 -5 -36 -187 -70 -404 -34 -217 -64
-397 -67 -400 -5 -6 -516 80 -525 89 -4 3 9 105 29 226 l36 220 121 123 121
123 -87 82 -87 82 84 495 c47 272 88 514 91 538 l7 42 272 0 273 0 5 -27 c3
-16 33 -184 68 -376 34 -191 66 -344 70 -340 4 5 32 154 64 333 31 179 65 369
76 423 10 54 19 100 19 103 0 2 87 4 193 4 l193 0 80 -527z m-4586 486 c0 -37
41 -693 43 -703 2 -5 86 107 187 250 101 142 220 308 264 367 l79 108 41 -38
c244 -231 456 -438 454 -444 -2 -4 -159 -172 -350 -373 -192 -202 -348 -371
-348 -375 0 -5 17 -15 38 -23 20 -9 171 -68 334 -133 l298 -117 32 -56 c40
-70 163 -201 243 -257 122 -87 305 -161 440 -180 94 -13 85 12 85 -246 0 -131
-4 -229 -9 -229 -5 0 -388 189 -851 420 -462 231 -846 420 -852 420 -8 0 -10
-119 -5 -444 l6 -444 -37 -6 c-92 -15 -395 -57 -397 -54 -2 2 -10 84 -18 183
l-15 179 38 76 c168 335 138 720 -77 985 l-57 70 -30 367 c-17 201 -34 369
-37 373 -4 3 -43 -3 -87 -14 -119 -31 -112 -35 -112 67 l0 87 343 102 c188 56
345 102 350 102 4 1 7 -9 7 -20z m-2567 -88 c139 -24 235 -60 343 -127 160
-99 253 -198 321 -339 117 -246 62 -548 -155 -855 -110 -154 -267 -301 -485
-452 -17 -12 -10 -44 123 -553 77 -297 143 -547 145 -556 4 -13 -37 -30 -213
-87 -119 -40 -224 -72 -233 -72 -10 0 -162 329 -494 1071 -264 589 -483 1073
-486 1075 -4 2 -59 -21 -124 -52 -65 -30 -118 -54 -120 -52 -10 14 -306 521
-320 547 -14 28 -15 35 -3 42 113 75 365 200 538 267 197 76 461 141 662 162
125 13 366 4 501 -19z m4871 -135 c149 -41 254 -99 359 -197 l71 -66 -23 -29
c-12 -15 -169 -185 -349 -377 -180 -191 -328 -352 -330 -357 -5 -15 81 -12
161 6 112 25 204 74 290 155 44 40 81 68 88 64 18 -12 344 -307 347 -315 4
-10 -136 -131 -206 -179 -226 -153 -567 -253 -813 -238 -366 22 -636 226 -720
544 -27 101 -30 278 -6 375 75 305 340 540 699 618 114 24 336 22 432 -4z
m3964 -80 c200 -40 364 -75 366 -77 2 -2 61 -274 131 -604 69 -330 128 -602
131 -604 6 -6 4 -10 130 509 64 267 121 504 127 528 6 23 15 42 21 42 15 0
548 -118 552 -122 3 -4 -801 -2447 -808 -2452 -3 -3 -388 110 -392 116 -3 2
-36 1358 -37 1463 0 76 -23 -35 -115 -559 l-98 -558 -61 7 c-65 7 -368 55
-371 58 0 1 6 74 15 162 l16 160 71 72 c127 130 226 296 274 463 31 107 39
319 16 424 -31 139 -98 270 -192 375 l-39 43 18 191 c9 104 15 192 13 195 -3
2 -40 14 -82 26 l-78 21 3 65 c2 76 11 130 20 130 3 -1 169 -34 369 -74z
m-660 -571 c211 -48 378 -215 431 -430 18 -71 16 -230 -4 -311 -65 -267 -284
-513 -540 -609 -386 -146 -752 16 -861 380 -27 89 -25 247 5 349 70 251 278
484 516 578 145 58 317 74 453 43z m-4663 -324 c3 -6 0 -11 -7 -11 -12 0 -198
69 -207 77 -3 2 40 49 95 104 l99 99 7 -129 c3 -71 9 -134 13 -140z m-1872
169 c246 -36 429 -186 504 -414 23 -71 26 -97 26 -206 0 -106 -4 -139 -27
-215 -104 -345 -393 -602 -737 -656 -363 -57 -679 178 -729 540 -58 428 308
883 765 950 83 12 120 12 198 1z"/>
<path d="M2044 2846 c-96 -22 -164 -55 -164 -79 0 -35 234 -804 250 -821 13
-14 158 92 246 179 126 125 172 239 161 399 -10 148 -88 255 -224 306 -72 27
-190 34 -269 16z m156 -258 c63 -33 82 -63 88 -147 5 -79 -10 -151 -38 -176
-18 -16 -20 -11 -60 117 -23 73 -48 153 -56 177 -8 25 -14 46 -14 48 0 10 42
0 80 -19z"/>
<path d="M6625 3046 c-71 -23 -127 -57 -182 -112 -160 -160 -159 -418 4 -581
47 -46 57 -52 70 -41 9 7 133 145 276 307 211 238 258 297 250 310 -20 33
-108 90 -170 110 -73 24 -184 27 -248 7z m136 -214 c4 -4 -50 -71 -120 -150
l-126 -143 -12 28 c-20 47 -16 132 11 188 27 60 45 76 94 86 40 8 143 3 153
-9z"/>
<path d="M10053 2565 c-78 -21 -130 -51 -185 -106 -61 -61 -90 -124 -96 -210
-16 -225 170 -400 411 -387 112 6 189 41 261 119 97 104 124 240 74 365 -31
77 -47 80 -46 10 1 -140 -148 -232 -293 -181 -48 17 -102 64 -125 107 -20 38
-18 116 4 158 23 44 99 96 152 105 50 8 51 21 3 29 -57 9 -102 6 -160 -9z"/>
<path d="M3590 2371 c-179 -57 -287 -218 -260 -388 31 -195 204 -325 412 -310
144 10 263 88 325 215 24 50 28 69 28 147 0 77 -4 97 -25 139 -33 63 -56 74
-47 23 12 -78 -35 -157 -119 -197 -67 -33 -167 -26 -226 16 -90 63 -116 173
-59 251 36 50 61 68 123 89 27 8 46 20 42 25 -9 15 -136 9 -194 -10z"/>
</g>
</svg>
